<?xml version="1.0" encoding="UTF-8"?>
<svg version="1.1" xmlns="http://www.w3.org/2000/svg" width="2000" height="1500">
<path d="M0 0 C660 0 1320 0 2000 0 C2000 495 2000 990 2000 1500 C1340 1500 680 1500 0 1500 C0 1005 0 510 0 0 Z " fill="#3C6D70" transform="translate(0,0)"/>
<path d="M0 0 C83.49 0 166.98 0 253 0 C253 213.51 253 427.02 253 647 C169.51 647 86.02 647 0 647 C0 568.46 0 489.92 0 409 C-39.38338983 412.39371349 -39.38338983 412.39371349 -78.765625 415.80078125 C-87.6875 416.57226562 -87.6875 416.57226562 -91.953125 416.94067383 C-94.91091108 417.19632789 -97.86857665 417.45332917 -100.82617188 417.71118164 C-104.56273362 418.0368916 -108.29950251 418.3601192 -112.03643036 418.68160057 C-113.41592901 418.80070944 -114.7953523 418.92069504 -116.17469025 419.04165077 C-118.05407854 419.20633667 -119.93377192 419.36752957 -121.81347656 419.52856445 C-122.86875549 419.62007278 -123.92403442 419.71158112 -125.0112915 419.80586243 C-128.0019237 420.00012496 -131.00306509 420 -134 420 C-134 494.91 -134 569.82 -134 647 C-217.16 647 -300.32 647 -386 647 C-386 433.82 -386 220.64 -386 1 C-302.84 1 -219.68 1 -134 1 C-134 77.89 -134 154.78 -134 234 C-123.77 233.01 -113.54 232.02 -103 231 C-95.92020195 230.37540317 -88.84093346 229.75924843 -81.7578125 229.17578125 C-80.40908365 229.06406617 -80.40908365 229.06406617 -79.03310776 228.95009422 C-74.30628536 228.55862526 -69.57927008 228.1696047 -64.85205078 227.78295898 C-60.04384991 227.38921137 -55.23641031 226.98683066 -50.42907906 226.58262348 C-46.6509264 226.2665062 -42.87227676 225.95666748 -39.09347153 225.64845848 C-37.3210343 225.50285499 -35.54877862 225.35501985 -33.77673721 225.20467567 C-31.29582838 224.99478428 -28.81432505 224.79394334 -26.33251953 224.5949707 C-25.6381781 224.53422867 -24.94383667 224.47348663 -24.22845459 224.41090393 C-16.11328062 223.78031214 -8.22032973 224 0 224 C0 150.08 0 76.16 0 0 Z " fill="#BDEE62" transform="translate(712,362)"/>
<path d="M0 0 C73.92 0 147.84 0 224 0 C224.0806627 103.92940528 224.0806627 103.92940528 224.09765625 147.4140625 C224.1015716 157.366211 224.10561245 167.31835945 224.10986328 177.27050781 C224.11039078 178.51773267 224.11091828 179.76495752 224.11146176 181.04997706 C224.12014455 201.1476553 224.13590343 221.24532202 224.15430559 241.34299344 C224.17305277 261.99069519 224.18412689 282.63839095 224.18817699 303.28610086 C224.19091208 316.0120478 224.19952966 328.73796217 224.21583293 341.46389908 C224.22645937 350.20758284 224.2295879 358.95124993 224.22700275 367.69493967 C224.22573022 372.72869754 224.22758801 377.76239877 224.23841095 382.79614639 C224.33701087 431.03629622 224.33701087 431.03629622 220.25 453.9375 C220.08081055 454.90945313 219.91162109 455.88140625 219.73730469 456.8828125 C212.56528293 496.67925292 199.46614446 536.0415889 174 568 C173.37480469 568.82886719 172.74960938 569.65773438 172.10546875 570.51171875 C156.45844391 590.66459295 136.81143128 606.9165021 114.93994141 619.85009766 C113.06759394 620.95993362 111.21185247 622.09420367 109.35546875 623.23046875 C85.7958774 637.34626309 58.86874787 646.5238528 32.11547852 652.32446289 C29.69563903 652.84916283 27.2812982 653.3903017 24.86694336 653.93920898 C13.80199985 656.41096622 2.76418164 658.10995941 -8.4987793 659.38305664 C-11.19772578 659.68865786 -13.89473078 660.00834256 -16.59179688 660.33007812 C-35.19805699 662.51778219 -53.58442034 663.20460879 -72.3125 663.1875 C-73.43062073 663.18722809 -74.54874146 663.18695618 -75.70074463 663.18667603 C-101.55144923 663.15788187 -127.24869089 662.54214278 -152.80322266 658.33496094 C-155.61440918 657.90631592 -158.43005804 657.61591476 -161.2590332 657.33325195 C-207.86227607 652.60699275 -259.93952447 635.93855802 -298 608 C-298.60859863 607.56220215 -299.21719727 607.1244043 -299.84423828 606.67333984 C-309.12538339 599.98901525 -317.78105255 592.96862417 -326 585 C-326.84691406 584.19175781 -326.84691406 584.19175781 -327.7109375 583.3671875 C-335.97953188 575.45966712 -343.38190831 567.33398077 -350 558 C-350.59409668 557.18039795 -350.59409668 557.18039795 -351.20019531 556.34423828 C-373.73692294 525.07747497 -385.67441263 487.84052096 -391.875 450.125 C-392.06610352 448.96411865 -392.25720703 447.8032373 -392.45410156 446.60717773 C-396.15044517 422.31093007 -396.2858819 398.06042041 -396.23213124 373.5517993 C-396.22338699 368.53785972 -396.22642455 363.52392432 -396.22793579 358.50997925 C-396.2289778 349.85069022 -396.22277342 341.19143164 -396.21146011 332.53215027 C-396.19511431 320.01272569 -396.18998788 307.49331563 -396.18748413 294.97388154 C-396.18312117 274.65543094 -396.1698503 254.33699652 -396.15087891 234.01855469 C-396.13248371 214.29655028 -396.11836805 194.57455031 -396.10986328 174.85253906 C-396.10932729 173.62179476 -396.10879129 172.39105046 -396.10823905 171.12301087 C-396.10407952 161.49589292 -396.10016591 151.86877487 -396.09632993 142.24165678 C-396.0775076 95.16108966 -396.03726038 48.08056311 -396 1 C-311.52 1 -227.04 1 -140 1 C-139.96261719 29.400625 -139.92523437 57.80125 -139.88671875 87.0625 C-139.85644903 105.03646299 -139.82544789 123.01042022 -139.79101562 140.984375 C-139.77296629 150.42643187 -139.75510245 159.86848907 -139.73754883 169.31054688 C-139.7342373 171.08558429 -139.7342373 171.08558429 -139.73085886 172.89648104 C-139.69551833 191.98447946 -139.67064333 211.07247785 -139.64965298 230.16049683 C-139.62786703 249.75953529 -139.59479007 269.35853141 -139.55129844 288.95753384 C-139.52482989 301.04474133 -139.5070992 313.13189609 -139.50065396 325.21913111 C-139.4953854 333.51519311 -139.47911922 341.81118884 -139.45433434 350.10721529 C-139.44036962 354.88885889 -139.43112966 359.670384 -139.43499184 364.45204926 C-139.43842813 368.83972368 -139.42788889 373.227146 -139.40676448 377.61476886 C-139.40154105 379.1924234 -139.40121422 380.77010444 -139.40660437 382.34775841 C-139.47692972 405.28886057 -134.08924098 428.84798227 -118.0078125 446.19140625 C-114.05809749 449.74922347 -109.62699709 452.41626373 -105 455 C-104.28070312 455.4021875 -103.56140625 455.804375 -102.8203125 456.21875 C-87.59651608 463.80192407 -64.87136235 465.03625241 -48.69140625 459.97265625 C-47.80324219 459.65167969 -46.91507813 459.33070313 -46 459 C-44.37384766 458.47212891 -44.37384766 458.47212891 -42.71484375 457.93359375 C-35.39683477 455.38783402 -29.65675092 452.30050516 -24 447 C-23.32453125 446.37738281 -22.6490625 445.75476563 -21.953125 445.11328125 C-15.42206937 438.46831186 -11.81152636 430.371945 -8 422 C-7.57589844 421.11183594 -7.15179687 420.22367188 -6.71484375 419.30859375 C-1.06259797 406.60715932 -0.55460373 392.70183721 -0.60127258 379.04223633 C-0.59581878 377.39500184 -0.58906132 375.74777126 -0.58113068 374.10054684 C-0.5632661 369.6216266 -0.56364248 365.1428735 -0.56726015 360.66392612 C-0.56788806 355.81614625 -0.55122612 350.96842052 -0.53674316 346.1206665 C-0.5140269 337.73735137 -0.50208413 329.3540776 -0.49761391 320.97073364 C-0.49113503 308.85007512 -0.46816718 296.72949113 -0.44127061 284.60886276 C-0.39806838 264.94042423 -0.3680642 245.27198885 -0.34643555 225.60351562 C-0.32540615 206.5058436 -0.29808 187.40819747 -0.26245117 168.31054688 C-0.25913091 166.52458202 -0.25913091 166.52458202 -0.25574356 164.70253706 C-0.23838162 155.38989713 -0.22065636 146.0772579 -0.20281637 136.76461887 C-0.11557708 91.17642867 -0.06000632 45.5882499 0 0 Z " fill="#BDEE62" transform="translate(1453,362)"/>
</svg>
